<svg height="53.763" width="53.763" xmlns="http://www.w3.org/2000/svg"><circle cx="26.881" cy="26.881" r="26.881"/><path d="M36.198 16.519c.771 1.071 1.155 2.353 1.155 3.845 0 1.538-.389 2.774-1.166 3.708-.435.524-1.075 1.003-1.922 1.436 1.286.467 2.256 1.208 2.91 2.221.654 1.015.981 2.245.981 3.691 0 1.493-.374 2.832-1.121 4.017a6.968 6.968 0 0 1-1.784 1.982c-.805.615-1.753 1.037-2.847 1.265-1.093.229-2.279.342-3.56.342h-11.35v-25.19h12.173c3.074.046 5.25.94 6.531 2.683zM22.52 18.211v5.554h6.123c1.094 0 1.981-.208 2.664-.624.682-.416 1.023-1.154 1.023-2.213 0-1.173-.451-1.948-1.354-2.324-.778-.262-1.771-.393-2.977-.393H22.52zm0 9.724v6.717h6.116c1.092 0 1.942-.148 2.551-.444 1.104-.547 1.655-1.595 1.655-3.145 0-1.31-.534-2.21-1.604-2.7-.597-.273-1.436-.416-2.518-.428h-6.2z" fill="#FFF"/></svg>