<svg xmlns="http://www.w3.org/2000/svg" width="512" height="512"><path d="M365.281 386.936l108.635 96.416-213.754-16.794c41.878-25.3 76.426-55.513 102.294-79.567a7.02 7.02 0 0 0 1.332.129c.495-.001.994-.06 1.493-.184zm120.237 57.614l20.008-262.045c-9.898 25.284-25.557 54.73-45.857 86.172l25.849 175.873zm-112.971-63.567l108.384 96.196-28.936-196.865c-23.853 35.506-52.495 71.808-79.448 100.669zm-126.596 93.793c-23.345 12.934-47.373 23.235-71.707 30.757l249.786-16.798-177.998-13.982-.081.023zM37.347 348.551l65.429 152.89 53.851-178.4-119.28 25.51zm135.167-34.563l182.182 58.517-46.488-184.204-135.694 125.687zm145.889-143.982l169.829-11.368L355.451 50.19l-37.048 119.816zM415.002 2.919L303.56 2.415l49.543 34.69 61.899-34.186zM4.785 283.758L1.118 392.411l26.729-48.75-23.062-59.903zm60.883 43.65c21.184 1.351 42.583-3.343 64.17-12.792 14.541-6.891 29.626-15.612 44.767-25.863 21.715-15.342 43.6-34.532 65.645-56.38 79.292-78.583 111.895-166.467 77.246-201.459-8.268-8.344-20.104-12.609-35.188-12.675-45.66-.197-113.905 34.175-172.069 91.842-55.586 55.098-91.631 120.496-91.824 166.618-.068 16.399 4.469 29.319 13.483 38.407 8.017 8.099 19.408 11.381 33.77 12.302zM231.103 472.18a450.977 450.977 0 0 0 7.408-3.909l-73.322-141.472-55.183 182.786c.462-.06 4.189-.508 4.189-.508a348.12 348.12 0 0 0 14.271-2.115c30.318-5.169 60.315-14.633 89.154-28.139a379.843 379.843 0 0 0 13.483-6.643zm149.74-116.689l1.739-1.996a583.526 583.526 0 0 0 3.654-4.331s3.768-4.486 5.232-6.268a846.996 846.996 0 0 0 7.371-9.079c2.258-2.82 4.51-5.649 6.758-8.529a822.615 822.615 0 0 0 7.056-9.134c5.297-6.973 10.653-14.284 16.377-22.36a805.407 805.407 0 0 0 17.416-25.584l-9.931-6.073a82226.348 82226.348 0 0 1-114.203-70.003l45.074 178.595a708.659 708.659 0 0 0 13.457-15.238zM508.235 67.95l-140.23-19.689 133.688 109.327c4.697-15.496 7.756-30.524 9.088-44.699.192-1.987.315-3.985.435-5.998.114-1.852.179-3.711.229-5.574.321-12.073-.76-23.288-3.21-33.367zm-53.91 191.792c.344-.453.729-.962 1.149-1.573 2.669-3.779 6.465-9.962 10.686-17.409 11.748-20.717 26.239-50.254 32.282-71.993L324.03 180.403a79350.904 79350.904 0 0 0 115.942 71.084l14.087 8.598c.084-.105.17-.22.266-.343zM245.264 466.128l.545-.307c38.046-21.084 72.05-47.021 110.142-84.087l-185.419-59.807 74.732 144.201zM.5 411.942c.819 24.146 5.943 44.081 15.241 59.391l8.658-103.113L.5 411.942zm33.784-50.535l-9.99 119c14.234 18.62 33.252 26.935 61.528 26.935 2.848 0 5.806-.078 8.978-.233l-4.995-12.412c-10.809-26.852-41.653-103.449-55.521-133.29zm471.86-300.803c-2.056-6.289-4.68-12.096-7.811-17.306-12.632-21.015-34.452-34.461-64.871-39.976l-67.961 37.531 140.643 19.751z"/></svg>