<svg height="53.763" width="53.763" xmlns="http://www.w3.org/2000/svg"><circle cx="26.373" cy="26.657" r="26.881"/><path d="M40.457 14.655a4.384 4.384 0 0 0-.776-1.822c-1.363-1.871-3.802-2.55-5.989-2.8a21.532 21.532 0 0 0-7.499.47c-.674.165-1.338.366-1.989.604-1.542.565-2.979 1.384-4.34 2.298-1.268.853-2.525 1.752-3.663 2.775-1.441 1.296-2.595 2.946-3.279 4.764-.364 1.029-.642 2.247-.408 3.573.215 1.229.734 2.325 1.367 3.221.63.903 1.341 1.647 2.042 2.304 1.341 1.256 2.659 2.272 3.687 3.324-.39.16-.784.328-1.187.518-.345.175-.692.334-1.045.532-.352.222-.666.451-.981.697-.623.497-1.229 1.043-1.779 1.712-.542.668-1.076 1.441-1.318 2.49-.072.253-.083.54-.105.817.004.259.006.509.052.784.078.536.278 1.149.71 1.672.411.517 1.081.899 1.573 1.01.527.203 1.076.238 1.622.264 1.088-.015 2.086-.343 2.995-.795.918-.471 1.714-1.045 2.439-1.898.389-.414.657-.915.925-1.421a8.07 8.07 0 0 0 .522-1.52 6.423 6.423 0 0 0-.1-3.405c-.121-.4-.289-.77-.474-1.125.193-.065.396-.144.58-.199 1.612-.486 3.694-.587 5.228.217.435.228.786.548 1.166.852.284.229.451.548.643.848.428.668.396 1.582.123 2.3-.135.354-.266.724-.568.968-.119.098-.813.417-.724.656.077.205.347.398 1.134-.074 1.668-1 1.878-3.244.96-4.819-.717-1.228-1.921-2.048-3.272-2.436a9.73 9.73 0 0 0-2.301-.363c-.685-.024-1.379.001-2.05.142-.196.041-1.759.588-1.808.525-.093-.122-.186-.246-.28-.362-1.36-1.587-2.902-2.748-4.203-3.994-1.146-1.071-2.47-2.483-2.567-4.139-.117-2.01 1.615-3.937 2.944-5.248.431-.425.892-.821 1.371-1.19 2.151-1.662 4.792-2.976 7.361-3.839a21.255 21.255 0 0 1 2.232-.619 15.262 15.262 0 0 1 3.238-.344c1.519.001 3.042.257 4.304 1.163a2.77 2.77 0 0 1 1.173 2.378c-.072 2.775-2.73 4.982-5.06 6.011-2.619 1.158-6.114 2.164-8.209 1.208-1.029-.469-2.01-1.328-2.292-.866-.209.342 2.04 1.855 2.265 1.976 2.046 1.102 5.288.795 7.769.045 2.74-.828 5.225-2.621 6.727-5.077.857-1.406 1.408-3.151 1.114-4.763zM21.385 36.817c0 .563-.122 1.163-.316 1.745-.224.49-.428.914-.825 1.318-.763.832-1.751 1.364-2.6 1.449-.111.032-.207.004-.309.002-.098-.014-.206.008-.296-.025-.171-.063-.403-.104-.479-.16a.694.694 0 0 1-.214-.223 1.611 1.611 0 0 1-.14-.479c-.018-.097-.02-.221-.027-.322.009-.092-.003-.178.013-.275.025-.191.069-.396.147-.609a5.54 5.54 0 0 1 .678-1.265c.571-.8 1.284-1.575 1.999-2.077a22.352 22.352 0 0 1 1.827-1.09c.364.667.56 1.332.542 2.011z" fill="#FFF"/></svg>